{
  "accessors": [
    {
      "bufferView": 2,
      "componentType": 5126,
      "count": 5105,
      "max": [
        10.727557182312012,
        5.622956275939941,
        0.28333336114883423
      ],
      "min": [
        -11.89917278289795,
        -5.608191967010498,
        -10.116291046142578
      ],
      "type": "VEC3"
    },
    {
      "bufferView": 2,
      "byteOffset": 61260,
      "componentType": 5126,
      "count": 5105,
      "max": [
        1.0,
        1.0,
        1.0
      ],
      "min": [
        -1.0,
        -1.0,
        -1.0
      ],
      "type": "VEC3"
    },
    {
      "bufferView": 3,
      "componentType": 5126,
      "count": 5105,
      "max": [
        1.0,
        1.0,
        1.0,
        1.0
      ],
      "min": [
        -0.9999972581863403,
        -1.0,
        -1.0,
        -1.0
      ],
      "type": "VEC4"
    },
    {
      "bufferView": 1,
      "componentType": 5126,
      "count": 5105,
      "max": [
        0.9977639317512512,
        0.990308403968811
      ],
      "min": [
        0.0019046994857490063,
        0.0019920344930142164
      ],
      "type": "VEC2"
    },
    {
      "bufferView": 1,
      "byteOffset": 40840,
      "componentType": 5126,
      "count": 5105,
      "max": [
        0.6250000596046448,
        1.0
      ],
      "min": [
        0.0,
        0.0
      ],
      "type": "VEC2"
    },
    {
      "bufferView": 1,
      "byteOffset": 81680,
      "componentType": 5126,
      "count": 5105,
      "max": [
        0.9977639317512512,
        0.990308403968811
      ],
      "min": [
        0.0019046994857490063,
        0.0019920344930142164
      ],
      "type": "VEC2"
    },
    {
      "bufferView": 1,
      "byteOffset": 122520,
      "componentType": 5126,
      "count": 5105,
      "max": [
        0.9977639317512512,
        0.990308403968811
      ],
      "min": [
        0.0019046994857490063,
        0.0019920344930142164
      ],
      "type": "VEC2"
    },
    {
      "bufferView": 1,
      "byteOffset": 163360,
      "componentType": 5126,
      "count": 5105,
      "max": [
        0.9977639317512512,
        0.990308403968811
      ],
      "min": [
        0.0019046994857490063,
        0.0019920344930142164
      ],
      "type": "VEC2"
    },
    {
      "bufferView": 0,
      "componentType": 5125,
      "count": 12240,
      "type": "SCALAR"
    }
  ],
  "asset": {
    "extras": {
      "author": "naveenhimal799 (https://sketchfab.com/naveenhimal799)",
      "license": "CC-BY-4.0 (http://creativecommons.org/licenses/by/4.0/)",
      "source": "https://sketchfab.com/3d-models/sleigh-1601ca6614a94456b791c5ba5341c096",
      "title": "Sleigh"
    },
    "generator": "Sketchfab-14.30.0",
    "version": "2.0"
  },
  "bufferViews": [
    {
      "buffer": 0,
      "byteLength": 48960,
      "name": "floatBufferViews",
      "target": 34963
    },
    {
      "buffer": 0,
      "byteLength": 204200,
      "byteOffset": 48960,
      "byteStride": 8,
      "name": "floatBufferViews",
      "target": 34962
    },
    {
      "buffer": 0,
      "byteLength": 122520,
      "byteOffset": 253160,
      "byteStride": 12,
      "name": "floatBufferViews",
      "target": 34962
    },
    {
      "buffer": 0,
      "byteLength": 81680,
      "byteOffset": 375680,
      "byteStride": 16,
      "name": "floatBufferViews",
      "target": 34962
    }
  ],
  "buffers": [
    {
      "byteLength": 457360,
      "uri": "scene.bin"
    }
  ],
  "images": [
    {
      "uri": "textures/lambert4_baseColor.png"
    },
    {
      "uri": "textures/lambert4_metallicRoughness.png"
    },
    {
      "uri": "textures/lambert4_normal.png"
    }
  ],
  "materials": [
    {
      "doubleSided": true,
      "name": "lambert4",
      "normalTexture": {
        "index": 2
      },
      "pbrMetallicRoughness": {
        "baseColorTexture": {
          "index": 0
        },
        "metallicRoughnessTexture": {
          "index": 1
        }
      }
    }
  ],
  "meshes": [
    {
      "name": "Object_0",
      "primitives": [
        {
          "attributes": {
            "NORMAL": 1,
            "POSITION": 0,
            "TANGENT": 2,
            "TEXCOORD_0": 3,
            "TEXCOORD_1": 4,
            "TEXCOORD_2": 5,
            "TEXCOORD_3": 6,
            "TEXCOORD_4": 7
          },
          "indices": 8,
          "material": 0,
          "mode": 4
        }
      ]
    }
  ],
  "nodes": [
    {
      "children": [
        1
      ],
      "matrix": [
        1.0,
        0.0,
        0.0,
        0.0,
        0.0,
        2.220446049250313e-16,
        -1.0,
        0.0,
        0.0,
        1.0,
        2.220446049250313e-16,
        0.0,
        0.0,
        0.0,
        0.0,
        1.0
      ],
      "name": "Sketchfab_model"
    },
    {
      "children": [
        2
      ],
      "name": "root"
    },
    {
      "children": [
        3
      ],
      "matrix": [
        1.0,
        0.0,
        0.0,
        0.0,
        0.0,
        2.220446049250313e-16,
        1.0,
        0.0,
        0.0,
        -1.0,
        2.220446049250313e-16,
        0.0,
        0.0,
        0.0,
        0.0,
        1.0
      ],
      "name": "GLTF_SceneRootNode"
    },
    {
      "children": [
        4
      ],
      "matrix": [
        0.08606527000665665,
        0.0,
        0.0,
        0.0,
        0.0,
        -1.4509519836627698e-08,
        0.08606527000665543,
        0.0,
        0.0,
        -0.08606527000665543,
        -1.4509519836627698e-08,
        0.0,
        0.0,
        0.0,
        0.0,
        1.0
      ],
      "name": "Sleigh_0"
    },
    {
      "mesh": 0,
      "name": "Object_4"
    }
  ],
  "samplers": [
    {
      "magFilter": 9729,
      "minFilter": 9987,
      "wrapS": 10497,
      "wrapT": 10497
    }
  ],
  "scene": 0,
  "scenes": [
    {
      "name": "Sketchfab_Scene",
      "nodes": [
        0
      ]
    }
  ],
  "textures": [
    {
      "sampler": 0,
      "source": 0
    },
    {
      "sampler": 0,
      "source": 1
    },
    {
      "sampler": 0,
      "source": 2
    }
  ]
}
