{
  "accessors": [
    {
      "bufferView": 1,
      "componentType": 5126,
      "count": 722,
      "max": [
        1.4718999862670898,
        1.4694499969482422,
        1.5613800287246704
      ],
      "min": [
        -1.4718999862670898,
        -1.4694499969482422,
        0.0
      ],
      "type": "VEC3"
    },
    {
      "bufferView": 1,
      "byteOffset": 8664,
      "componentType": 5126,
      "count": 722,
      "max": [
        1.0,
        1.0,
        1.0
      ],
      "min": [
        -1.0,
        -1.0,
        -1.0
      ],
      "type": "VEC3"
    },
    {
      "bufferView": 0,
      "componentType": 5125,
      "count": 1500,
      "type": "SCALAR"
    },
    {
      "bufferView": 1,
      "byteOffset": 17328,
      "componentType": 5126,
      "count": 80,
      "max": [
        1.743499994277954,
        1.6248799562454224,
        1.3709900379180908
      ],
      "min": [
        -1.5062700510025024,
        -1.6248799562454224,
        -0.4871099889278412
      ],
      "type": "VEC3"
    },
    {
      "bufferView": 1,
      "byteOffset": 18288,
      "componentType": 5126,
      "count": 80,
      "max": [
        1.0,
        1.0,
        0.0
      ],
      "min": [
        -1.0,
        -1.0,
        -1.0
      ],
      "type": "VEC3"
    },
    {
      "bufferView": 0,
      "byteOffset": 6000,
      "componentType": 5125,
      "count": 150,
      "type": "SCALAR"
    },
    {
      "bufferView": 1,
      "byteOffset": 19248,
      "componentType": 5126,
      "count": 4,
      "max": [
        -0.898140013217926,
        0.23999999463558197,
        0.7939199805259705
      ],
      "min": [
        -0.898140013217926,
        -0.23999999463558197,
        0.0
      ],
      "type": "VEC3"
    },
    {
      "bufferView": 1,
      "byteOffset": 19296,
      "componentType": 5126,
      "count": 4,
      "max": [
        -1.0,
        0.0,
        -0.0
      ],
      "min": [
        -1.0,
        0.0,
        -0.0
      ],
      "type": "VEC3"
    },
    {
      "bufferView": 0,
      "byteOffset": 6600,
      "componentType": 5125,
      "count": 6,
      "type": "SCALAR"
    },
    {
      "bufferView": 1,
      "byteOffset": 19344,
      "componentType": 5126,
      "count": 360,
      "max": [
        1.4446300268173218,
        1.4445600509643555,
        2.9083399772644043
      ],
      "min": [
        -1.4444899559020996,
        -1.4445600509643555,
        1.5613800287246704
      ],
      "type": "VEC3"
    },
    {
      "bufferView": 1,
      "byteOffset": 23664,
      "componentType": 5126,
      "count": 360,
      "max": [
        1.0,
        1.0,
        1.0
      ],
      "min": [
        -1.0,
        -1.0,
        -0.9886257648468018
      ],
      "type": "VEC3"
    },
    {
      "bufferView": 0,
      "byteOffset": 6624,
      "componentType": 5125,
      "count": 918,
      "type": "SCALAR"
    },
    {
      "bufferView": 1,
      "byteOffset": 27984,
      "componentType": 5126,
      "count": 73,
      "max": [
        1.743499994277954,
        1.6248799562454224,
        0.0
      ],
      "min": [
        -1.5062700510025024,
        -1.6248799562454224,
        -0.4871099889278412
      ],
      "type": "VEC3"
    },
    {
      "bufferView": 1,
      "byteOffset": 28860,
      "componentType": 5126,
      "count": 73,
      "max": [
        0.8866817951202393,
        0.9158949851989746,
        1.0
      ],
      "min": [
        -0.9440452456474304,
        -0.9158949851989746,
        0.29457876086235046
      ],
      "type": "VEC3"
    },
    {
      "bufferView": 0,
      "byteOffset": 10296,
      "componentType": 5125,
      "count": 195,
      "type": "SCALAR"
    }
  ],
  "asset": {
    "extras": {
      "author": "Leonardo Camilo Ribeiro (https://sketchfab.com/leoCamilo)",
      "license": "CC-BY-4.0 (http://creativecommons.org/licenses/by/4.0/)",
      "source": "https://sketchfab.com/3d-models/temple-0a956ffd7efd47288b9020b8dc25b40c",
      "title": "Temple"
    },
    "generator": "Sketchfab-12.65.0",
    "version": "2.0"
  },
  "bufferViews": [
    {
      "buffer": 0,
      "byteLength": 11076,
      "name": "floatBufferViews",
      "target": 34963
    },
    {
      "buffer": 0,
      "byteLength": 29736,
      "byteOffset": 11076,
      "byteStride": 12,
      "name": "floatBufferViews",
      "target": 34962
    }
  ],
  "buffers": [
    {
      "byteLength": 40812,
      "uri": "scene.bin"
    }
  ],
  "materials": [
    {
      "doubleSided": true,
      "name": "columns",
      "pbrMetallicRoughness": {
        "baseColorFactor": [
          0.4200237095,
          0.1052556187,
          0.0806289017,
          1.0
        ],
        "metallicFactor": 0.0,
        "roughnessFactor": 0.6
      }
    },
    {
      "doubleSided": true,
      "name": "walls",
      "pbrMetallicRoughness": {
        "baseColorFactor": [
          0.8000000715,
          0.662530601,
          0.3373038471,
          1.0
        ],
        "metallicFactor": 0.0,
        "roughnessFactor": 0.6
      }
    },
    {
      "doubleSided": true,
      "name": "door",
      "pbrMetallicRoughness": {
        "baseColorFactor": [
          0.4769894183,
          0.1522729546,
          0.0580098704,
          1.0
        ],
        "metallicFactor": 0.0,
        "roughnessFactor": 0.6
      }
    },
    {
      "doubleSided": true,
      "name": "roof",
      "pbrMetallicRoughness": {
        "baseColorFactor": [
          0.274248302,
          0.4969219863,
          0.0897422433,
          1.0
        ],
        "metallicFactor": 0.0,
        "roughnessFactor": 0.6
      }
    },
    {
      "doubleSided": true,
      "name": "stone",
      "pbrMetallicRoughness": {
        "baseColorFactor": [
          0.2870763838,
          0.2870763838,
          0.2870763838,
          1.0
        ],
        "metallicFactor": 0.0,
        "roughnessFactor": 0.6
      }
    }
  ],
  "meshes": [
    {
      "name": "Plane_0",
      "primitives": [
        {
          "attributes": {
            "NORMAL": 1,
            "POSITION": 0
          },
          "indices": 2,
          "material": 0,
          "mode": 4
        }
      ]
    },
    {
      "name": "Plane_1",
      "primitives": [
        {
          "attributes": {
            "NORMAL": 4,
            "POSITION": 3
          },
          "indices": 5,
          "material": 1,
          "mode": 4
        }
      ]
    },
    {
      "name": "Plane_2",
      "primitives": [
        {
          "attributes": {
            "NORMAL": 7,
            "POSITION": 6
          },
          "indices": 8,
          "material": 2,
          "mode": 4
        }
      ]
    },
    {
      "name": "Plane_3",
      "primitives": [
        {
          "attributes": {
            "NORMAL": 10,
            "POSITION": 9
          },
          "indices": 11,
          "material": 3,
          "mode": 4
        }
      ]
    },
    {
      "name": "Plane_4",
      "primitives": [
        {
          "attributes": {
            "NORMAL": 13,
            "POSITION": 12
          },
          "indices": 14,
          "material": 4,
          "mode": 4
        }
      ]
    }
  ],
  "nodes": [
    {
      "children": [
        1
      ],
      "matrix": [
        -2.220446049250313e-16,
        6.123234262925839e-17,
        -1.0,
        0.0,
        -1.0,
        1.6081226229577287e-16,
        2.2204460492503136e-16,
        0.0,
        1.6081226229577292e-16,
        1.0,
        6.123234262925839e-17,
        0.0,
        0.35585689544677734,
        -7.902896807221427e-17,
        0.355914831161499,
        1.0
      ],
      "name": "Sketchfab_model"
    },
    {
      "children": [
        2
      ],
      "name": "Root"
    },
    {
      "children": [
        3,
        4,
        5,
        6,
        7
      ],
      "matrix": [
        3.0,
        0.0,
        0.0,
        0.0,
        0.0,
        3.0,
        0.0,
        0.0,
        0.0,
        0.0,
        3.0,
        0.0,
        0.0,
        0.0,
        0.0,
        1.0
      ],
      "name": "Plane"
    },
    {
      "mesh": 0,
      "name": "Plane_0"
    },
    {
      "mesh": 1,
      "name": "Plane_1"
    },
    {
      "mesh": 2,
      "name": "Plane_2"
    },
    {
      "mesh": 3,
      "name": "Plane_3"
    },
    {
      "mesh": 4,
      "name": "Plane_4"
    }
  ],
  "scene": 0,
  "scenes": [
    {
      "name": "Sketchfab_Scene",
      "nodes": [
        0
      ]
    }
  ]
}
