{
  "accessors": [
    {
      "bufferView": 2,
      "componentType": 5126,
      "count": 15544,
      "max": [
        1.2667415142059326,
        1.289726734161377,
        1.3993194103240967
      ],
      "min": [
        -1.2667415142059326,
        -1.2897266149520874,
        0.010756075382232666
      ],
      "type": "VEC3"
    },
    {
      "bufferView": 2,
      "byteOffset": 186528,
      "componentType": 5126,
      "count": 15544,
      "max": [
        1.0,
        1.0,
        0.9999686479568481
      ],
      "min": [
        -1.0,
        -1.0,
        -0.9999966621398926
      ],
      "type": "VEC3"
    },
    {
      "bufferView": 0,
      "componentType": 5125,
      "count": 93600,
      "type": "SCALAR"
    },
    {
      "bufferView": 2,
      "byteOffset": 373056,
      "componentType": 5126,
      "count": 35020,
      "max": [
        1.3026173114776611,
        1.2484015226364136,
        0.07383580505847931
      ],
      "min": [
        -1.3026171922683716,
        -1.2484017610549927,
        -2.3200254440307617
      ],
      "type": "VEC3"
    },
    {
      "bufferView": 2,
      "byteOffset": 793296,
      "componentType": 5126,
      "count": 35020,
      "max": [
        1.0,
        1.0,
        0.9999974966049194
      ],
      "min": [
        -1.0,
        -1.0,
        -0.9999996423721313
      ],
      "type": "VEC3"
    },
    {
      "bufferView": 0,
      "byteOffset": 374400,
      "componentType": 5125,
      "count": 209952,
      "type": "SCALAR"
    },
    {
      "bufferView": 2,
      "byteOffset": 1213536,
      "componentType": 5126,
      "count": 289,
      "max": [
        0.9195058941841125,
        0.9195056557655334,
        1.0000001192092896
      ],
      "min": [
        -0.9195058345794678,
        -0.9195055961608887,
        -0.9919031858444214
      ],
      "type": "VEC3"
    },
    {
      "bufferView": 2,
      "byteOffset": 1217004,
      "componentType": 5126,
      "count": 289,
      "max": [
        0.9999999403953552,
        1.0,
        0.0017162900185212493
      ],
      "min": [
        -0.9999999403953552,
        -0.9999999403953552,
        -1.0
      ],
      "type": "VEC3"
    },
    {
      "bufferView": 1,
      "componentType": 5126,
      "count": 289,
      "max": [
        0.6250001192092896,
        1.0000001192092896
      ],
      "min": [
        0.1250000149011612,
        0.0
      ],
      "type": "VEC2"
    },
    {
      "bufferView": 0,
      "byteOffset": 1214208,
      "componentType": 5125,
      "count": 1248,
      "type": "SCALAR"
    },
    {
      "bufferView": 2,
      "byteOffset": 1220472,
      "componentType": 5126,
      "count": 2882,
      "max": [
        0.9595057964324951,
        0.9595054984092712,
        1.000078797340393
      ],
      "min": [
        -0.9595057368278503,
        -0.9595054984092712,
        -0.860482931137085
      ],
      "type": "VEC3"
    },
    {
      "bufferView": 2,
      "byteOffset": 1255056,
      "componentType": 5126,
      "count": 2882,
      "max": [
        1.0,
        1.0,
        0.0017163846641778946
      ],
      "min": [
        -1.0,
        -1.0,
        -0.0017163436859846115
      ],
      "type": "VEC3"
    },
    {
      "bufferView": 1,
      "byteOffset": 2312,
      "componentType": 5126,
      "count": 2882,
      "max": [
        1.0,
        1.0
      ],
      "min": [
        0.0,
        0.0
      ],
      "type": "VEC2"
    },
    {
      "bufferView": 0,
      "byteOffset": 1219200,
      "componentType": 5125,
      "count": 11592,
      "type": "SCALAR"
    },
    {
      "bufferView": 2,
      "byteOffset": 1289640,
      "componentType": 5126,
      "count": 768,
      "max": [
        0.46204912662506104,
        0.43258535861968994,
        1.0925014019012451
      ],
      "min": [
        -0.46204912662506104,
        -0.4915129840373993,
        1.0232173204421997
      ],
      "type": "VEC3"
    },
    {
      "bufferView": 2,
      "byteOffset": 1298856,
      "componentType": 5126,
      "count": 768,
      "max": [
        1.0,
        1.0,
        1.0
      ],
      "min": [
        -1.0,
        -1.0,
        -1.0
      ],
      "type": "VEC3"
    },
    {
      "bufferView": 0,
      "byteOffset": 1265568,
      "componentType": 5125,
      "count": 4608,
      "type": "SCALAR"
    },
    {
      "bufferView": 2,
      "byteOffset": 1308072,
      "componentType": 5126,
      "count": 1920,
      "max": [
        1.249285101890564,
        1.249285101890564,
        0.03589797765016556
      ],
      "min": [
        -1.2492848634719849,
        -1.2492849826812744,
        -0.03589821234345436
      ],
      "type": "VEC3"
    },
    {
      "bufferView": 2,
      "byteOffset": 1331112,
      "componentType": 5126,
      "count": 1920,
      "max": [
        1.0,
        1.0,
        1.0
      ],
      "min": [
        -1.0,
        -1.0,
        -1.0
      ],
      "type": "VEC3"
    },
    {
      "bufferView": 0,
      "byteOffset": 1284000,
      "componentType": 5125,
      "count": 11520,
      "type": "SCALAR"
    },
    {
      "bufferView": 2,
      "byteOffset": 1354152,
      "componentType": 5126,
      "count": 560,
      "max": [
        1.1851164102554321,
        1.1851165294647217,
        1.4646079540252686
      ],
      "min": [
        -1.1851164102554321,
        -1.1851165294647217,
        -1.9880210161209106
      ],
      "type": "VEC3"
    },
    {
      "bufferView": 2,
      "byteOffset": 1360872,
      "componentType": 5126,
      "count": 560,
      "max": [
        0.9991153478622437,
        0.9991153478622437,
        1.0
      ],
      "min": [
        -0.9991153478622437,
        -0.9991153478622437,
        -0.5273985862731934
      ],
      "type": "VEC3"
    },
    {
      "bufferView": 1,
      "byteOffset": 25368,
      "componentType": 5126,
      "count": 560,
      "max": [
        1.0076874494552612,
        1.225569725036621
      ],
      "min": [
        0.01363432314246893,
        0.0009760856628417969
      ],
      "type": "VEC2"
    },
    {
      "bufferView": 0,
      "byteOffset": 1330080,
      "componentType": 5125,
      "count": 2592,
      "type": "SCALAR"
    },
    {
      "bufferView": 2,
      "byteOffset": 1367592,
      "componentType": 5126,
      "count": 1172,
      "max": [
        0.12473000586032867,
        2.5469307899475098,
        0.04837578907608986
      ],
      "min": [
        -0.17057721316814423,
        -0.05830373615026474,
        -0.08699411898851395
      ],
      "type": "VEC3"
    },
    {
      "bufferView": 2,
      "byteOffset": 1381656,
      "componentType": 5126,
      "count": 1172,
      "max": [
        0.9993962049484253,
        0.9989863038063049,
        0.9995064735412598
      ],
      "min": [
        -0.993803858757019,
        -0.9989863038063049,
        -0.9975947737693787
      ],
      "type": "VEC3"
    },
    {
      "bufferView": 0,
      "byteOffset": 1340448,
      "componentType": 5125,
      "count": 7008,
      "type": "SCALAR"
    },
    {
      "bufferView": 2,
      "byteOffset": 1395720,
      "componentType": 5126,
      "count": 2548,
      "max": [
        0.21150922775268555,
        0.4702867865562439,
        1.1108944416046143
      ],
      "min": [
        0.06287617236375809,
        -0.5292145609855652,
        0.420962393283844
      ],
      "type": "VEC3"
    },
    {
      "bufferView": 2,
      "byteOffset": 1426296,
      "componentType": 5126,
      "count": 2548,
      "max": [
        0.9994657039642334,
        0.9994169473648071,
        0.9992959499359131
      ],
      "min": [
        -0.9995309114456177,
        -0.9994169473648071,
        -0.999730110168457
      ],
      "type": "VEC3"
    },
    {
      "bufferView": 0,
      "byteOffset": 1368480,
      "componentType": 5125,
      "count": 15264,
      "type": "SCALAR"
    },
    {
      "bufferView": 2,
      "byteOffset": 1456872,
      "componentType": 5126,
      "count": 2548,
      "max": [
        0.2115369290113449,
        0.45044994354248047,
        1.1109089851379395
      ],
      "min": [
        0.05778918415307999,
        -0.5093777179718018,
        0.41985538601875305
      ],
      "type": "VEC3"
    },
    {
      "bufferView": 2,
      "byteOffset": 1487448,
      "componentType": 5126,
      "count": 2548,
      "max": [
        0.9995652437210083,
        0.9994397163391113,
        0.9991142749786377
      ],
      "min": [
        -0.9996020793914795,
        -0.9994397163391113,
        -0.999730110168457
      ],
      "type": "VEC3"
    },
    {
      "bufferView": 0,
      "byteOffset": 1429536,
      "componentType": 5125,
      "count": 15264,
      "type": "SCALAR"
    },
    {
      "bufferView": 2,
      "byteOffset": 1518024,
      "componentType": 5126,
      "count": 768,
      "max": [
        0.46291717886924744,
        0.4854707717895508,
        -0.25233960151672363
      ],
      "min": [
        -0.46291717886924744,
        -0.4854707419872284,
        -0.31125736236572266
      ],
      "type": "VEC3"
    },
    {
      "bufferView": 2,
      "byteOffset": 1527240,
      "componentType": 5126,
      "count": 768,
      "max": [
        1.0,
        1.0,
        1.0
      ],
      "min": [
        -1.0,
        -1.0,
        -1.0
      ],
      "type": "VEC3"
    },
    {
      "bufferView": 0,
      "byteOffset": 1490592,
      "componentType": 5125,
      "count": 4608,
      "type": "SCALAR"
    },
    {
      "bufferView": 2,
      "byteOffset": 1536456,
      "componentType": 5126,
      "count": 832,
      "max": [
        0.5032831430435181,
        0.5269618034362793,
        0.029997926205396652
      ],
      "min": [
        -0.5032831430435181,
        -0.5269618034362793,
        -0.029997926205396652
      ],
      "type": "VEC3"
    },
    {
      "bufferView": 2,
      "byteOffset": 1546440,
      "componentType": 5126,
      "count": 832,
      "max": [
        1.0,
        1.0,
        1.0
      ],
      "min": [
        -1.0,
        -1.0,
        -1.0
      ],
      "type": "VEC3"
    },
    {
      "bufferView": 0,
      "byteOffset": 1509024,
      "componentType": 5125,
      "count": 4992,
      "type": "SCALAR"
    }
  ],
  "asset": {
    "extras": {
      "author": "cami (https://sketchfab.com/Mounir.Chidmi)",
      "license": "CC-BY-4.0 (http://creativecommons.org/licenses/by/4.0/)",
      "source": "https://sketchfab.com/3d-models/hot-air-balloon-free-607bc6fac59b48a5b4b534eb104ede98",
      "title": "hot air balloon free"
    },
    "generator": "Sketchfab-12.67.0",
    "version": "2.0"
  },
  "bufferViews": [
    {
      "buffer": 0,
      "byteLength": 1528992,
      "name": "floatBufferViews",
      "target": 34963
    },
    {
      "buffer": 0,
      "byteLength": 29848,
      "byteOffset": 1528992,
      "byteStride": 8,
      "name": "floatBufferViews",
      "target": 34962
    },
    {
      "buffer": 0,
      "byteLength": 1556424,
      "byteOffset": 1558840,
      "byteStride": 12,
      "name": "floatBufferViews",
      "target": 34962
    }
  ],
  "buffers": [
    {
      "byteLength": 3115264,
      "uri": "scene.bin"
    }
  ],
  "extensionsUsed": [
    "KHR_materials_clearcoat"
  ],
  "materials": [
    {
      "doubleSided": true,
      "name": "Material.002",
      "pbrMetallicRoughness": {
        "baseColorFactor": [
          0.8,
          0.8,
          0.8,
          1.0
        ],
        "metallicFactor": 0.0
      }
    },
    {
      "doubleSided": true,
      "name": "Material.001",
      "pbrMetallicRoughness": {
        "baseColorFactor": [
          0.8,
          0.8,
          0.8,
          1.0
        ],
        "metallicFactor": 0.0
      }
    },
    {
      "doubleSided": true,
      "name": "Material.007",
      "pbrMetallicRoughness": {
        "baseColorFactor": [
          0.8,
          0.247595,
          0.112742,
          1.0
        ],
        "metallicFactor": 0.0,
        "roughnessFactor": 0.9205525234529608
      }
    },
    {
      "doubleSided": true,
      "extensions": {
        "KHR_materials_clearcoat": {
          "clearcoatFactor": 1.0,
          "clearcoatRoughnessFactor": 0.04
        }
      },
      "name": "Material.005",
      "pbrMetallicRoughness": {
        "baseColorFactor": [
          0.390158,
          0.094565,
          0.0308867,
          1.0
        ],
        "metallicFactor": 0.0,
        "roughnessFactor": 0.9658305337588927
      }
    },
    {
      "doubleSided": true,
      "name": "Material.004",
      "pbrMetallicRoughness": {
        "baseColorFactor": [
          0.9919663492033605,
          0.9919663492033605,
          0.9919663492033605,
          1.0
        ],
        "roughnessFactor": 0.0
      }
    },
    {
      "doubleSided": true,
      "extensions": {
        "KHR_materials_clearcoat": {
          "clearcoatFactor": 0.28085967350407803,
          "clearcoatRoughnessFactor": 0.04
        }
      },
      "name": "Material.008",
      "pbrMetallicRoughness": {
        "baseColorFactor": [
          0.7999999999999999,
          0.130145,
          0.09314769999999994,
          1.0
        ],
        "metallicFactor": 0.0,
        "roughnessFactor": 0.47636590035397175
      }
    }
  ],
  "meshes": [
    {
      "name": "Cube_Material.002_0",
      "primitives": [
        {
          "attributes": {
            "NORMAL": 1,
            "POSITION": 0
          },
          "indices": 2,
          "material": 0,
          "mode": 4
        }
      ]
    },
    {
      "name": "Cube.002_Material.001_0",
      "primitives": [
        {
          "attributes": {
            "NORMAL": 4,
            "POSITION": 3
          },
          "indices": 5,
          "material": 1,
          "mode": 4
        }
      ]
    },
    {
      "name": "Cube.005_Material.007_0",
      "primitives": [
        {
          "attributes": {
            "NORMAL": 7,
            "POSITION": 6,
            "TEXCOORD_0": 8
          },
          "indices": 9,
          "material": 2,
          "mode": 4
        }
      ]
    },
    {
      "name": "Cube.005_Material.005_0",
      "primitives": [
        {
          "attributes": {
            "NORMAL": 11,
            "POSITION": 10,
            "TEXCOORD_0": 12
          },
          "indices": 13,
          "material": 3,
          "mode": 4
        }
      ]
    },
    {
      "name": "Cube.024_Material.004_0",
      "primitives": [
        {
          "attributes": {
            "NORMAL": 15,
            "POSITION": 14
          },
          "indices": 16,
          "material": 4,
          "mode": 4
        }
      ]
    },
    {
      "name": "Cube.027_Material.004_0",
      "primitives": [
        {
          "attributes": {
            "NORMAL": 18,
            "POSITION": 17
          },
          "indices": 19,
          "material": 4,
          "mode": 4
        }
      ]
    },
    {
      "name": "Cube.028_Material.008_0",
      "primitives": [
        {
          "attributes": {
            "NORMAL": 21,
            "POSITION": 20,
            "TEXCOORD_0": 22
          },
          "indices": 23,
          "material": 5,
          "mode": 4
        }
      ]
    },
    {
      "name": "Cube.030_Material.001_0",
      "primitives": [
        {
          "attributes": {
            "NORMAL": 25,
            "POSITION": 24
          },
          "indices": 26,
          "material": 1,
          "mode": 4
        }
      ]
    },
    {
      "name": "Cube.003_Material.001_0",
      "primitives": [
        {
          "attributes": {
            "NORMAL": 28,
            "POSITION": 27
          },
          "indices": 29,
          "material": 1,
          "mode": 4
        }
      ]
    },
    {
      "name": "Cube.025_Material.001_0",
      "primitives": [
        {
          "attributes": {
            "NORMAL": 31,
            "POSITION": 30
          },
          "indices": 32,
          "material": 1,
          "mode": 4
        }
      ]
    },
    {
      "name": "Cube.006_Material.005_0",
      "primitives": [
        {
          "attributes": {
            "NORMAL": 34,
            "POSITION": 33
          },
          "indices": 35,
          "material": 3,
          "mode": 4
        }
      ]
    },
    {
      "name": "Cube.023_Material.005_0",
      "primitives": [
        {
          "attributes": {
            "NORMAL": 37,
            "POSITION": 36
          },
          "indices": 38,
          "material": 3,
          "mode": 4
        }
      ]
    }
  ],
  "nodes": [
    {
      "children": [
        1
      ],
      "matrix": [
        1.0,
        0.0,
        0.0,
        0.0,
        0.0,
        2.220446049250313e-16,
        -1.0,
        0.0,
        0.0,
        1.0,
        2.220446049250313e-16,
        0.0,
        0.0,
        0.0,
        0.0,
        1.0
      ],
      "name": "Sketchfab_model"
    },
    {
      "children": [
        2
      ],
      "matrix": [
        0.009999999776482582,
        0.0,
        0.0,
        0.0,
        0.0,
        0.0,
        0.009999999776482582,
        0.0,
        0.0,
        -0.009999999776482582,
        0.0,
        0.0,
        0.0,
        0.0,
        0.0,
        1.0
      ],
      "name": "ac9da989b1da41d9bd62c5d8353b1d1e.fbx"
    },
    {
      "children": [
        3,
        5,
        7,
        10,
        12,
        14,
        16,
        18,
        20,
        22,
        24
      ],
      "name": "RootNode"
    },
    {
      "children": [
        4
      ],
      "matrix": [
        100.0,
        0.0,
        0.0,
        0.0,
        0.0,
        -1.629206793918314e-05,
        -99.99999999999868,
        0.0,
        0.0,
        99.99999999999868,
        -1.629206793918314e-05,
        0.0,
        2.936150312423706,
        80.8304214477539,
        2.9463820457458496,
        1.0
      ],
      "name": "Cube"
    },
    {
      "mesh": 0,
      "name": "Cube_Material.002_0"
    },
    {
      "children": [
        6
      ],
      "matrix": [
        100.0,
        0.0,
        0.0,
        0.0,
        0.0,
        -1.629206793918314e-05,
        -99.99999999999868,
        0.0,
        0.0,
        99.99999999999868,
        -1.629206793918314e-05,
        0.0,
        2.936150312423706,
        100.89234924316406,
        2.9463820457458496,
        1.0
      ],
      "name": "Cube.002"
    },
    {
      "mesh": 1,
      "name": "Cube.002_Material.001_0"
    },
    {
      "children": [
        8,
        9
      ],
      "matrix": [
        47.51606750488281,
        0.0,
        0.0,
        0.0,
        0.0,
        -8.144529956361711e-06,
        -49.99076843261653,
        0.0,
        0.0,
        31.59243202209431,
        -5.1470604886799236e-06,
        0.0,
        2.936150312423706,
        -202.31349182128906,
        2.9463820457458496,
        1.0
      ],
      "name": "Cube.005"
    },
    {
      "mesh": 2,
      "name": "Cube.005_Material.007_0"
    },
    {
      "mesh": 3,
      "name": "Cube.005_Material.005_0"
    },
    {
      "children": [
        11
      ],
      "matrix": [
        100.0,
        0.0,
        0.0,
        0.0,
        0.0,
        -1.629206793918314e-05,
        -99.99999999999868,
        0.0,
        0.0,
        99.99999999999868,
        -1.629206793918314e-05,
        0.0,
        2.9361491203308105,
        -216.2963409423828,
        0.0,
        1.0
      ],
      "name": "Cube.024"
    },
    {
      "mesh": 4,
      "name": "Cube.024_Material.004_0"
    },
    {
      "children": [
        13
      ],
      "matrix": [
        100.0,
        0.0,
        0.0,
        0.0,
        0.0,
        -1.629206793918314e-05,
        -99.99999999999868,
        0.0,
        0.0,
        99.99999999999868,
        -1.629206793918314e-05,
        0.0,
        2.936150074005127,
        100.89236450195313,
        2.94638729095459,
        1.0
      ],
      "name": "Cube.027"
    },
    {
      "mesh": 5,
      "name": "Cube.027_Material.004_0"
    },
    {
      "children": [
        15
      ],
      "matrix": [
        100.0,
        0.0,
        0.0,
        0.0,
        0.0,
        -1.629206793918314e-05,
        -99.99999999999868,
        0.0,
        0.0,
        99.99999999999868,
        -1.629206793918314e-05,
        0.0,
        2.936150312423706,
        80.8304214477539,
        2.9463820457458496,
        1.0
      ],
      "name": "Cube.028"
    },
    {
      "mesh": 6,
      "name": "Cube.028_Material.008_0"
    },
    {
      "children": [
        17
      ],
      "matrix": [
        100.0,
        0.0,
        0.0,
        0.0,
        0.0,
        -1.629206793918314e-05,
        -99.99999999999868,
        0.0,
        0.0,
        99.99999999999868,
        -1.629206793918314e-05,
        0.0,
        17.41938591003418,
        103.4383544921875,
        127.37773895263672,
        1.0
      ],
      "name": "Cube.030"
    },
    {
      "mesh": 7,
      "name": "Cube.030_Material.001_0"
    },
    {
      "children": [
        19
      ],
      "matrix": [
        -99.99999999999241,
        1.2246465878873718e-14,
        3.8941437775530106e-05,
        0.0,
        3.894143777553e-05,
        7.549789982075339e-06,
        99.99999999999213,
        0.0,
        -2.9277502948264183e-12,
        99.9999999999997,
        -7.549789970973109e-06,
        0.0,
        2.9361519813537598,
        -216.2963409423828,
        5.892764091491699,
        1.0
      ],
      "name": "Cube.003"
    },
    {
      "mesh": 8,
      "name": "Cube.003_Material.001_0"
    },
    {
      "children": [
        21
      ],
      "matrix": [
        4.331257681400302e-05,
        1.1102230246251565e-14,
        99.99999999999062,
        0.0,
        99.99999999999054,
        -4.371139006309477e-06,
        -4.331257681955414e-05,
        0.0,
        4.371138995207247e-06,
        99.99999999999991,
        -1.9095836023552692e-12,
        0.0,
        5.882532119750977,
        -216.2963409423828,
        2.946380138397217,
        1.0
      ],
      "name": "Cube.025"
    },
    {
      "mesh": 9,
      "name": "Cube.025_Material.001_0"
    },
    {
      "children": [
        23
      ],
      "matrix": [
        100.0,
        0.0,
        0.0,
        0.0,
        0.0,
        -1.629206793918314e-05,
        -99.99999999999868,
        0.0,
        0.0,
        99.99999999999868,
        -1.629206793918314e-05,
        0.0,
        2.936150312423706,
        -202.31349182128906,
        2.9463820457458496,
        1.0
      ],
      "name": "Cube.006"
    },
    {
      "mesh": 10,
      "name": "Cube.006_Material.005_0"
    },
    {
      "children": [
        25
      ],
      "matrix": [
        91.1706771850586,
        0.0,
        0.0,
        0.0,
        0.0,
        -1.485358866760309e-05,
        -91.17067718505739,
        0.0,
        0.0,
        91.17067718505739,
        -1.485358866760309e-05,
        0.0,
        2.936150312423706,
        -169.66964721679688,
        2.9463820457458496,
        1.0
      ],
      "name": "Cube.023"
    },
    {
      "mesh": 11,
      "name": "Cube.023_Material.005_0"
    }
  ],
  "scene": 0,
  "scenes": [
    {
      "name": "Sketchfab_Scene",
      "nodes": [
        0
      ]
    }
  ]
}
