{
  "accessors": [
    {
      "bufferView": 2,
      "componentType": 5126,
      "count": 3863,
      "max": [
        0.20082394778728485,
        0.19594193994998932,
        0.200593501329422
      ],
      "min": [
        -0.20095591247081757,
        -0.1959419697523117,
        -0.20059403777122498
      ],
      "type": "VEC3"
    },
    {
      "bufferView": 2,
      "byteOffset": 46356,
      "componentType": 5126,
      "count": 3863,
      "max": [
        0.9991767406463623,
        0.9565102458000183,
        0.9996374845504761
      ],
      "min": [
        -0.9992033243179321,
        -0.9564907550811768,
        -0.9995763301849365
      ],
      "type": "VEC3"
    },
    {
      "bufferView": 1,
      "componentType": 5126,
      "count": 3863,
      "max": [
        1.0,
        1.0
      ],
      "min": [
        0.0,
        0.0
      ],
      "type": "VEC2"
    },
    {
      "bufferView": 0,
      "componentType": 5125,
      "count": 21000,
      "type": "SCALAR"
    },
    {
      "bufferView": 2,
      "byteOffset": 92712,
      "componentType": 5126,
      "count": 3863,
      "max": [
        0.20082394778728485,
        0.19594193994998932,
        0.200593501329422
      ],
      "min": [
        -0.20095591247081757,
        -0.1959419697523117,
        -0.20059403777122498
      ],
      "type": "VEC3"
    },
    {
      "bufferView": 2,
      "byteOffset": 139068,
      "componentType": 5126,
      "count": 3863,
      "max": [
        0.9991767406463623,
        0.9565102458000183,
        0.9996374845504761
      ],
      "min": [
        -0.9992033243179321,
        -0.9564907550811768,
        -0.9995763301849365
      ],
      "type": "VEC3"
    },
    {
      "bufferView": 1,
      "byteOffset": 30904,
      "componentType": 5126,
      "count": 3863,
      "max": [
        1.0,
        1.0
      ],
      "min": [
        0.0,
        0.0
      ],
      "type": "VEC2"
    },
    {
      "bufferView": 0,
      "byteOffset": 84000,
      "componentType": 5125,
      "count": 21000,
      "type": "SCALAR"
    },
    {
      "bufferView": 3,
      "componentType": 5126,
      "count": 250,
      "max": [
        10.416666984558105
      ],
      "min": [
        0.0416666679084301
      ],
      "type": "SCALAR"
    },
    {
      "bufferView": 4,
      "componentType": 5126,
      "count": 250,
      "max": [
        0.0,
        0.999980092048645,
        -0.0,
        1.0
      ],
      "min": [
        0.0,
        -0.999980092048645,
        -0.0,
        0.00630835210904479
      ],
      "type": "VEC4"
    },
    {
      "bufferView": 3,
      "byteOffset": 1000,
      "componentType": 5126,
      "count": 250,
      "max": [
        10.416666984558105
      ],
      "min": [
        0.0416666679084301
      ],
      "type": "SCALAR"
    },
    {
      "bufferView": 4,
      "byteOffset": 4000,
      "componentType": 5126,
      "count": 250,
      "max": [
        0.0,
        0.999980092048645,
        -0.0,
        1.0
      ],
      "min": [
        0.0,
        -0.999980092048645,
        -0.0,
        0.00630835210904479
      ],
      "type": "VEC4"
    }
  ],
  "animations": [
    {
      "channels": [
        {
          "sampler": 0,
          "target": {
            "node": 3,
            "path": "rotation"
          }
        },
        {
          "sampler": 1,
          "target": {
            "node": 5,
            "path": "rotation"
          }
        }
      ],
      "name": "Animation",
      "samplers": [
        {
          "input": 8,
          "interpolation": "LINEAR",
          "output": 9
        },
        {
          "input": 10,
          "interpolation": "LINEAR",
          "output": 11
        }
      ]
    }
  ],
  "asset": {
    "extras": {
      "author": "Tycho Magnetic Anomaly (https://sketchfab.com/Tycho_Magnetic_Anomaly)",
      "license": "CC-BY-4.0 (http://creativecommons.org/licenses/by/4.0/)",
      "source": "https://sketchfab.com/3d-models/white-dwarf-876075d3eda94eb8a800cd79a8d78213",
      "title": "White Dwarf"
    },
    "generator": "Sketchfab-12.59.0",
    "version": "2.0"
  },
  "bufferViews": [
    {
      "buffer": 0,
      "byteLength": 168000,
      "name": "floatBufferViews",
      "target": 34963
    },
    {
      "buffer": 0,
      "byteLength": 61808,
      "byteOffset": 168000,
      "byteStride": 8,
      "name": "floatBufferViews",
      "target": 34962
    },
    {
      "buffer": 0,
      "byteLength": 185424,
      "byteOffset": 229808,
      "byteStride": 12,
      "name": "floatBufferViews",
      "target": 34962
    },
    {
      "buffer": 0,
      "byteLength": 2000,
      "byteOffset": 415232,
      "name": "floatBufferViews"
    },
    {
      "buffer": 0,
      "byteLength": 8000,
      "byteOffset": 417232,
      "byteStride": 16,
      "name": "floatBufferViews"
    }
  ],
  "buffers": [
    {
      "byteLength": 425232,
      "uri": "scene.bin"
    }
  ],
  "materials": [
    {
      "alphaMode": "BLEND",
      "doubleSided": true,
      "emissiveFactor": [
        0.0,
        0.6944936769745138,
        0.0873254002372529
      ],
      "name": "Scene_-_Root",
      "pbrMetallicRoughness": {
        "baseColorFactor": [
          0.0,
          0.8928293248917687,
          0.7890249602428097,
          0.009
        ],
        "metallicFactor": 0.0,
        "roughnessFactor": 0.1587979955287536
      }
    }
  ],
  "meshes": [
    {
      "name": "Object_0",
      "primitives": [
        {
          "attributes": {
            "NORMAL": 1,
            "POSITION": 0,
            "TEXCOORD_0": 2
          },
          "indices": 3,
          "material": 0,
          "mode": 4
        }
      ]
    },
    {
      "name": "Object_1",
      "primitives": [
        {
          "attributes": {
            "NORMAL": 5,
            "POSITION": 4,
            "TEXCOORD_0": 6
          },
          "indices": 7,
          "material": 0,
          "mode": 4
        }
      ]
    }
  ],
  "nodes": [
    {
      "children": [
        1
      ],
      "matrix": [
        1.0,
        0.0,
        0.0,
        0.0,
        0.0,
        2.220446049250313e-16,
        -1.0,
        0.0,
        0.0,
        1.0,
        2.220446049250313e-16,
        0.0,
        0.0,
        0.0,
        0.0,
        1.0
      ],
      "name": "Sketchfab_model"
    },
    {
      "children": [
        2
      ],
      "name": "root"
    },
    {
      "children": [
        3,
        5
      ],
      "matrix": [
        1.0,
        0.0,
        0.0,
        0.0,
        0.0,
        2.220446049250313e-16,
        1.0,
        0.0,
        0.0,
        -1.0,
        2.220446049250313e-16,
        0.0,
        0.0,
        0.0,
        0.0,
        1.0
      ],
      "name": "GLTF_SceneRootNode"
    },
    {
      "children": [
        4
      ],
      "name": "Spiral_0"
    },
    {
      "mesh": 0,
      "name": "Object_4"
    },
    {
      "children": [
        6
      ],
      "name": "Spiral.001_1"
    },
    {
      "mesh": 1,
      "name": "Object_6"
    }
  ],
  "scene": 0,
  "scenes": [
    {
      "name": "Sketchfab_Scene",
      "nodes": [
        0
      ]
    }
  ]
}
