{
  "accessors": [
    {
      "bufferView": 2,
      "componentType": 5126,
      "count": 65532,
      "max": [
        463.0780944824219,
        61.482513427734375,
        524.6187744140625
      ],
      "min": [
        -463.1318664550781,
        -65.5494384765625,
        -450.25714111328125
      ],
      "type": "VEC3"
    },
    {
      "bufferView": 2,
      "byteOffset": 786384,
      "componentType": 5126,
      "count": 65532,
      "max": [
        0.9993301630020142,
        0.9999985098838806,
        0.9999088048934937
      ],
      "min": [
        -0.9920694231987,
        -0.7492165565490723,
        -0.9630403518676758
      ],
      "type": "VEC3"
    },
    {
      "bufferView": 1,
      "componentType": 5126,
      "count": 65532,
      "max": [
        0.994917094707489,
        0.9961128830909729
      ],
      "min": [
        0.0004610894829966128,
        0.0004481077194213867
      ],
      "type": "VEC2"
    },
    {
      "bufferView": 0,
      "componentType": 5125,
      "count": 302061,
      "type": "SCALAR"
    },
    {
      "bufferView": 2,
      "byteOffset": 1572768,
      "componentType": 5126,
      "count": 65532,
      "max": [
        459.26165771484375,
        57.16692352294922,
        524.4076538085938
      ],
      "min": [
        -449.1170349121094,
        -64.93915557861328,
        -463.017333984375
      ],
      "type": "VEC3"
    },
    {
      "bufferView": 2,
      "byteOffset": 2359152,
      "componentType": 5126,
      "count": 65532,
      "max": [
        0.9998173713684082,
        0.9999980330467224,
        0.9950741529464722
      ],
      "min": [
        -0.9971416592597961,
        -0.9732200503349304,
        -0.9602346420288086
      ],
      "type": "VEC3"
    },
    {
      "bufferView": 1,
      "byteOffset": 524256,
      "componentType": 5126,
      "count": 65532,
      "max": [
        0.9979222416877747,
        0.9988733530044556
      ],
      "min": [
        0.0003396218817215413,
        0.0020022988319396973
      ],
      "type": "VEC2"
    },
    {
      "bufferView": 0,
      "byteOffset": 1208244,
      "componentType": 5125,
      "count": 294108,
      "type": "SCALAR"
    },
    {
      "bufferView": 2,
      "byteOffset": 3145536,
      "componentType": 5126,
      "count": 65532,
      "max": [
        481.44451904296875,
        61.98469543457031,
        524.4769897460938
      ],
      "min": [
        -466.0447082519531,
        -65.61934661865234,
        -467.0727844238281
      ],
      "type": "VEC3"
    },
    {
      "bufferView": 2,
      "byteOffset": 3931920,
      "componentType": 5126,
      "count": 65532,
      "max": [
        0.9963496923446655,
        0.9999989867210388,
        0.9960333108901978
      ],
      "min": [
        -0.9994385838508606,
        -0.8191327452659607,
        -0.9999219179153442
      ],
      "type": "VEC3"
    },
    {
      "bufferView": 1,
      "byteOffset": 1048512,
      "componentType": 5126,
      "count": 65532,
      "max": [
        0.9965767860412598,
        0.9997550845146179
      ],
      "min": [
        0.0002798612986225635,
        0.0004634857177734375
      ],
      "type": "VEC2"
    },
    {
      "bufferView": 0,
      "byteOffset": 2384676,
      "componentType": 5125,
      "count": 256344,
      "type": "SCALAR"
    },
    {
      "bufferView": 2,
      "byteOffset": 4718304,
      "componentType": 5126,
      "count": 65532,
      "max": [
        479.2696838378906,
        61.87299346923828,
        524.7885131835938
      ],
      "min": [
        -471.7277526855469,
        -65.08650970458984,
        -475.1906433105469
      ],
      "type": "VEC3"
    },
    {
      "bufferView": 2,
      "byteOffset": 5504688,
      "componentType": 5126,
      "count": 65532,
      "max": [
        0.999096155166626,
        0.9999975562095642,
        0.9937511682510376
      ],
      "min": [
        -0.9970621466636658,
        -0.8325783610343933,
        -0.9994091391563416
      ],
      "type": "VEC3"
    },
    {
      "bufferView": 1,
      "byteOffset": 1572768,
      "componentType": 5126,
      "count": 65532,
      "max": [
        0.9995799660682678,
        0.9997523427009583
      ],
      "min": [
        0.0002546813921071589,
        0.0004181861877441406
      ],
      "type": "VEC2"
    },
    {
      "bufferView": 0,
      "byteOffset": 3410052,
      "componentType": 5125,
      "count": 216858,
      "type": "SCALAR"
    },
    {
      "bufferView": 2,
      "byteOffset": 6291072,
      "componentType": 5126,
      "count": 60045,
      "max": [
        481.3965148925781,
        61.98469543457031,
        524.7770385742188
      ],
      "min": [
        -472.274658203125,
        -65.57659912109375,
        -475.21148681640625
      ],
      "type": "VEC3"
    },
    {
      "bufferView": 2,
      "byteOffset": 7011612,
      "componentType": 5126,
      "count": 60045,
      "max": [
        0.9995883107185364,
        0.9999982714653015,
        0.9923533201217651
      ],
      "min": [
        -0.9996528029441833,
        -0.9732200503349304,
        -0.9999219179153442
      ],
      "type": "VEC3"
    },
    {
      "bufferView": 1,
      "byteOffset": 2097024,
      "componentType": 5126,
      "count": 60045,
      "max": [
        0.9996320009231567,
        0.9997392296791077
      ],
      "min": [
        0.0002392995374975726,
        0.0005207061767578125
      ],
      "type": "VEC2"
    },
    {
      "bufferView": 0,
      "byteOffset": 4277484,
      "componentType": 5125,
      "count": 111747,
      "type": "SCALAR"
    }
  ],
  "asset": {
    "extras": {
      "author": "ஜCIHIRISஜ (https://sketchfab.com/crazy4creativity)",
      "license": "CC-BY-4.0 (http://creativecommons.org/licenses/by/4.0/)",
      "source": "https://sketchfab.com/3d-models/snow-and-ice-covered-ground-76dd7b03864a4812a005b7fadd09a9ee",
      "title": "Snow and Ice Covered Ground"
    },
    "generator": "Sketchfab-12.67.0",
    "version": "2.0"
  },
  "bufferViews": [
    {
      "buffer": 0,
      "byteLength": 4724472,
      "name": "floatBufferViews",
      "target": 34963
    },
    {
      "buffer": 0,
      "byteLength": 2577384,
      "byteOffset": 4724472,
      "byteStride": 8,
      "name": "floatBufferViews",
      "target": 34962
    },
    {
      "buffer": 0,
      "byteLength": 7732152,
      "byteOffset": 7301856,
      "byteStride": 12,
      "name": "floatBufferViews",
      "target": 34962
    }
  ],
  "buffers": [
    {
      "byteLength": 15034008,
      "uri": "scene.bin"
    }
  ],
  "extensionsUsed": [
    "KHR_materials_unlit"
  ],
  "images": [
    {
      "uri": "textures/Material0_baseColor.jpeg"
    }
  ],
  "materials": [
    {
      "doubleSided": true,
      "extensions": {
        "KHR_materials_unlit": {}
      },
      "name": "Material0",
      "pbrMetallicRoughness": {
        "baseColorTexture": {
          "index": 0
        },
        "metallicFactor": 0.0
      }
    }
  ],
  "meshes": [
    {
      "name": "Stereo textured mesh_Material0_0",
      "primitives": [
        {
          "attributes": {
            "NORMAL": 1,
            "POSITION": 0,
            "TEXCOORD_0": 2
          },
          "indices": 3,
          "material": 0,
          "mode": 4
        }
      ]
    },
    {
      "name": "Stereo textured mesh_Material0_0",
      "primitives": [
        {
          "attributes": {
            "NORMAL": 5,
            "POSITION": 4,
            "TEXCOORD_0": 6
          },
          "indices": 7,
          "material": 0,
          "mode": 4
        }
      ]
    },
    {
      "name": "Stereo textured mesh_Material0_0",
      "primitives": [
        {
          "attributes": {
            "NORMAL": 9,
            "POSITION": 8,
            "TEXCOORD_0": 10
          },
          "indices": 11,
          "material": 0,
          "mode": 4
        }
      ]
    },
    {
      "name": "Stereo textured mesh_Material0_0",
      "primitives": [
        {
          "attributes": {
            "NORMAL": 13,
            "POSITION": 12,
            "TEXCOORD_0": 14
          },
          "indices": 15,
          "material": 0,
          "mode": 4
        }
      ]
    },
    {
      "name": "Stereo textured mesh_Material0_0",
      "primitives": [
        {
          "attributes": {
            "NORMAL": 17,
            "POSITION": 16,
            "TEXCOORD_0": 18
          },
          "indices": 19,
          "material": 0,
          "mode": 4
        }
      ]
    }
  ],
  "nodes": [
    {
      "children": [
        1
      ],
      "matrix": [
        1.0,
        0.0,
        0.0,
        0.0,
        0.0,
        -0.9961864352226257,
        -0.08725021034479163,
        0.0,
        0.0,
        0.08725021034479163,
        -0.9961864352226257,
        0.0,
        0.0,
        -20.81438255310058,
        -26.351558685302738,
        1.0
      ],
      "name": "Sketchfab_model"
    },
    {
      "children": [
        2
      ],
      "matrix": [
        1.0,
        0.0,
        0.0,
        0.0,
        0.0,
        -1.0,
        0.0,
        0.0,
        0.0,
        0.0,
        -1.0,
        0.0,
        0.0,
        0.0,
        0.0,
        1.0
      ],
      "name": "sketchfabTemp.obj.fbx"
    },
    {
      "children": [
        3
      ],
      "name": "RootNode"
    },
    {
      "children": [
        4,
        5,
        6,
        7,
        8
      ],
      "name": "Stereo textured mesh"
    },
    {
      "mesh": 0,
      "name": "Stereo textured mesh_Material0_0"
    },
    {
      "mesh": 1,
      "name": "Stereo textured mesh_Material0_0"
    },
    {
      "mesh": 2,
      "name": "Stereo textured mesh_Material0_0"
    },
    {
      "mesh": 3,
      "name": "Stereo textured mesh_Material0_0"
    },
    {
      "mesh": 4,
      "name": "Stereo textured mesh_Material0_0"
    }
  ],
  "samplers": [
    {
      "magFilter": 9729,
      "minFilter": 9987,
      "wrapS": 10497,
      "wrapT": 10497
    }
  ],
  "scene": 0,
  "scenes": [
    {
      "name": "Sketchfab_Scene",
      "nodes": [
        0
      ]
    }
  ],
  "textures": [
    {
      "sampler": 0,
      "source": 0
    }
  ]
}
