{
  "accessors": [
    {
      "bufferView": 2,
      "componentType": 5126,
      "count": 401,
      "max": [
        99.27091217041016,
        232.29290771484375,
        244.39588928222656
      ],
      "min": [
        -99.27096557617188,
        -183.38949584960938,
        -434.4710693359375
      ],
      "type": "VEC3"
    },
    {
      "bufferView": 2,
      "byteOffset": 4812,
      "componentType": 5126,
      "count": 401,
      "max": [
        0.9964888095855713,
        0.9705612063407898,
        1.0
      ],
      "min": [
        -0.9964888095855713,
        -0.9685568809509277,
        -1.0
      ],
      "type": "VEC3"
    },
    {
      "bufferView": 3,
      "componentType": 5126,
      "count": 401,
      "max": [
        1.0,
        0.8781893849372864,
        0.9691430926322937,
        1.0
      ],
      "min": [
        -1.0,
        -0.9971614480018616,
        -0.9705322980880737,
        1.0
      ],
      "type": "VEC4"
    },
    {
      "bufferView": 1,
      "componentType": 5126,
      "count": 401,
      "max": [
        0.9765082001686096,
        0.9765082597732544
      ],
      "min": [
        0.023491740226745605,
        0.023491740226745605
      ],
      "type": "VEC2"
    },
    {
      "bufferView": 1,
      "byteOffset": 3208,
      "componentType": 5126,
      "count": 401,
      "max": [
        0.9765082001686096,
        0.9765082597732544
      ],
      "min": [
        0.023491740226745605,
        0.023491740226745605
      ],
      "type": "VEC2"
    },
    {
      "bufferView": 0,
      "componentType": 5125,
      "count": 1404,
      "type": "SCALAR"
    }
  ],
  "asset": {
    "extras": {
      "author": "Thunder (https://sketchfab.com/thunderpwn)",
      "license": "CC-BY-4.0 (http://creativecommons.org/licenses/by/4.0/)",
      "source": "https://sketchfab.com/3d-models/wooden-stick-7dfa93d8ce7d491499286c70549b10e9",
      "title": "Wooden Stick"
    },
    "generator": "Sketchfab-12.66.0",
    "version": "2.0"
  },
  "bufferViews": [
    {
      "buffer": 0,
      "byteLength": 5616,
      "name": "floatBufferViews",
      "target": 34963
    },
    {
      "buffer": 0,
      "byteLength": 6416,
      "byteOffset": 5616,
      "byteStride": 8,
      "name": "floatBufferViews",
      "target": 34962
    },
    {
      "buffer": 0,
      "byteLength": 9624,
      "byteOffset": 12032,
      "byteStride": 12,
      "name": "floatBufferViews",
      "target": 34962
    },
    {
      "buffer": 0,
      "byteLength": 6416,
      "byteOffset": 21656,
      "byteStride": 16,
      "name": "floatBufferViews",
      "target": 34962
    }
  ],
  "buffers": [
    {
      "byteLength": 28072,
      "uri": "scene.bin"
    }
  ],
  "images": [
    {
      "uri": "textures/Material.001_baseColor.png"
    },
    {
      "uri": "textures/Material.001_metallicRoughness.png"
    },
    {
      "uri": "textures/Material.001_normal.png"
    }
  ],
  "materials": [
    {
      "doubleSided": true,
      "name": "Material.001",
      "normalTexture": {
        "index": 2
      },
      "occlusionTexture": {
        "index": 1
      },
      "pbrMetallicRoughness": {
        "baseColorTexture": {
          "index": 0
        },
        "metallicFactor": 0.0,
        "metallicRoughnessTexture": {
          "index": 1
        }
      }
    }
  ],
  "meshes": [
    {
      "name": "Cylinder_Material.001_0",
      "primitives": [
        {
          "attributes": {
            "NORMAL": 1,
            "POSITION": 0,
            "TANGENT": 2,
            "TEXCOORD_0": 3,
            "TEXCOORD_1": 4
          },
          "indices": 5,
          "material": 0,
          "mode": 4
        }
      ]
    }
  ],
  "nodes": [
    {
      "children": [
        1
      ],
      "matrix": [
        1.0,
        0.0,
        0.0,
        0.0,
        0.0,
        2.220446049250313e-16,
        -1.0,
        0.0,
        0.0,
        1.0,
        2.220446049250313e-16,
        0.0,
        0.0,
        0.0,
        0.0,
        1.0
      ],
      "name": "Sketchfab_model"
    },
    {
      "children": [
        2
      ],
      "matrix": [
        1.0,
        0.0,
        0.0,
        0.0,
        0.0,
        0.0,
        1.0,
        0.0,
        0.0,
        -1.0,
        0.0,
        0.0,
        0.0,
        0.0,
        0.0,
        1.0
      ],
      "name": "stick.fbx"
    },
    {
      "children": [
        3,
        6
      ],
      "name": "RootNode"
    },
    {
      "children": [
        4
      ],
      "matrix": [
        1.0,
        0.0,
        0.0,
        0.0,
        0.0,
        0.9999999999999971,
        -7.54979012640433e-08,
        0.0,
        0.0,
        7.54979012640433e-08,
        0.9999999999999971,
        0.0,
        133.53826904296875,
        2.1486892700195313,
        65.81338500976563,
        1.0
      ],
      "name": "Hemi"
    },
    {
      "children": [
        5
      ],
      "matrix": [
        1.0,
        0.0,
        0.0,
        0.0,
        0.0,
        2.220446049250313e-16,
        1.0,
        0.0,
        0.0,
        -1.0,
        2.220446049250313e-16,
        0.0,
        0.0,
        0.0,
        0.0,
        1.0
      ],
      "name": "Object_4"
    },
    {
      "name": "Object_5"
    },
    {
      "children": [
        7
      ],
      "matrix": [
        2.2771703938991683e-09,
        -0.030162036418914715,
        0.0,
        0.0,
        2.2771703955734977e-09,
        1.6743293650930854e-16,
        -0.030162036418914715,
        0.0,
        0.1044832617044443,
        7.888266796107807e-09,
        7.888266790307822e-09,
        0.0,
        5.20145845413208,
        3.1795642375946045,
        0.7284398078918457,
        1.0
      ],
      "name": "Cylinder"
    },
    {
      "mesh": 0,
      "name": "Cylinder_Material.001_0"
    }
  ],
  "samplers": [
    {
      "magFilter": 9729,
      "minFilter": 9987,
      "wrapS": 10497,
      "wrapT": 10497
    }
  ],
  "scene": 0,
  "scenes": [
    {
      "name": "Sketchfab_Scene",
      "nodes": [
        0
      ]
    }
  ],
  "textures": [
    {
      "sampler": 0,
      "source": 0
    },
    {
      "sampler": 0,
      "source": 1
    },
    {
      "sampler": 0,
      "source": 2
    }
  ]
}
