{
  "accessors": [
    {
      "bufferView": 2,
      "componentType": 5126,
      "count": 1724,
      "max": [
        4.69474983215332,
        3.7292401790618896,
        3.942150115966797
      ],
      "min": [
        -2.3972299098968506,
        -3.140389919281006,
        -0.5392799973487854
      ],
      "type": "VEC3"
    },
    {
      "bufferView": 2,
      "byteOffset": 20688,
      "componentType": 5126,
      "count": 1724,
      "max": [
        0.9998303651809692,
        0.7495227456092834,
        0.7365810871124268
      ],
      "min": [
        -0.9988071322441101,
        -0.7483925819396973,
        -0.7479825615882874
      ],
      "type": "VEC3"
    },
    {
      "bufferView": 1,
      "componentType": 5125,
      "count": 2592,
      "type": "SCALAR"
    },
    {
      "bufferView": 2,
      "byteOffset": 41376,
      "componentType": 5126,
      "count": 674,
      "max": [
        0.906719982624054,
        0.4192200005054474,
        0.10175999999046326
      ],
      "min": [
        -2.3279199600219727,
        -0.5398399829864502,
        -1.042240023612976
      ],
      "type": "VEC3"
    },
    {
      "bufferView": 2,
      "byteOffset": 49464,
      "componentType": 5126,
      "count": 674,
      "max": [
        0.9493083953857422,
        0.994602382183075,
        0.9852238297462463
      ],
      "min": [
        -0.9765422344207764,
        -0.9960704445838928,
        -0.9877185821533203
      ],
      "type": "VEC3"
    },
    {
      "bufferView": 1,
      "byteOffset": 10368,
      "componentType": 5125,
      "count": 3648,
      "type": "SCALAR"
    },
    {
      "bufferView": 4,
      "componentType": 5126,
      "count": 3,
      "max": [
        1.0,
        0.0,
        0.017580000683665276,
        0.0,
        0.12588000297546387,
        1.0,
        0.0,
        0.0,
        0.10241000354290009,
        0.7030699849128723,
        1.0,
        0.0,
        0.0,
        0.33733999729156494,
        0.1366499960422516,
        1.0
      ],
      "min": [
        0.9867500066757202,
        -0.16132000088691711,
        -0.011710000224411488,
        0.0,
        -0.123539999127388,
        -0.7190499901771545,
        -0.7102699875831604,
        0.0,
        0.0,
        0.0,
        -0.7294999957084656,
        0.0,
        -2.378770112991333,
        0.0,
        -0.087459996342659,
        1.0
      ],
      "type": "MAT4"
    },
    {
      "bufferView": 0,
      "componentType": 5123,
      "count": 1724,
      "type": "VEC4"
    },
    {
      "bufferView": 3,
      "componentType": 5126,
      "count": 1724,
      "max": [
        1.0,
        0.0,
        0.0,
        0.0
      ],
      "min": [
        1.0,
        0.0,
        0.0,
        0.0
      ],
      "type": "VEC4"
    },
    {
      "bufferView": 5,
      "componentType": 5126,
      "count": 1,
      "max": [
        0.041669998317956924
      ],
      "min": [
        0.041669998317956924
      ],
      "type": "SCALAR"
    },
    {
      "bufferView": 6,
      "componentType": 5126,
      "count": 1,
      "max": [
        2.4047980308532715,
        0.043363794684410095,
        0.10824058949947357
      ],
      "min": [
        2.4047980308532715,
        0.043363794684410095,
        0.10824058949947357
      ],
      "type": "VEC3"
    },
    {
      "bufferView": 5,
      "byteOffset": 4,
      "componentType": 5126,
      "count": 50,
      "max": [
        2.083329916000366
      ],
      "min": [
        0.041669998317956924
      ],
      "type": "SCALAR"
    },
    {
      "bufferView": 7,
      "componentType": 5126,
      "count": 50,
      "max": [
        0.9214762449264526,
        -0.12266148626804352,
        -0.01765577681362629,
        0.6869611144065857
      ],
      "min": [
        0.7128525376319885,
        -0.14007481932640076,
        -0.06991541385650635,
        0.361878365278244
      ],
      "type": "VEC4"
    },
    {
      "bufferView": 5,
      "byteOffset": 204,
      "componentType": 5126,
      "count": 50,
      "max": [
        2.083329916000366
      ],
      "min": [
        0.041669998317956924
      ],
      "type": "SCALAR"
    },
    {
      "bufferView": 7,
      "byteOffset": 800,
      "componentType": 5126,
      "count": 50,
      "max": [
        0.6946576833724976,
        0.05327371880412102,
        0.12388739734888077,
        0.9269657731056213
      ],
      "min": [
        0.35406723618507385,
        0.0041703418828547,
        0.11192791163921356,
        0.7085850238800049
      ],
      "type": "VEC4"
    }
  ],
  "animations": [
    {
      "channels": [
        {
          "sampler": 0,
          "target": {
            "node": 4,
            "path": "translation"
          }
        },
        {
          "sampler": 1,
          "target": {
            "node": 4,
            "path": "rotation"
          }
        },
        {
          "sampler": 2,
          "target": {
            "node": 5,
            "path": "rotation"
          }
        }
      ],
      "name": "ArmatureAction.001",
      "samplers": [
        {
          "input": 9,
          "interpolation": "LINEAR",
          "output": 10
        },
        {
          "input": 11,
          "interpolation": "LINEAR",
          "output": 12
        },
        {
          "input": 13,
          "interpolation": "LINEAR",
          "output": 14
        }
      ]
    }
  ],
  "asset": {
    "extras": {
      "author": "JasmineFS (https://sketchfab.com/acestudent13)",
      "license": "CC-BY-4.0 (http://creativecommons.org/licenses/by/4.0/)",
      "source": "https://sketchfab.com/3d-models/butterfly-eb8b0e0bdaa34156ac4ac29583769d34",
      "title": "Butterfly"
    },
    "generator": "Sketchfab-12.68.0",
    "version": "2.0"
  },
  "bufferViews": [
    {
      "buffer": 0,
      "byteLength": 13792,
      "byteStride": 8,
      "name": "shortBufferViews",
      "target": 34962
    },
    {
      "buffer": 0,
      "byteLength": 24960,
      "byteOffset": 13792,
      "name": "floatBufferViews",
      "target": 34963
    },
    {
      "buffer": 0,
      "byteLength": 57552,
      "byteOffset": 38752,
      "byteStride": 12,
      "name": "floatBufferViews",
      "target": 34962
    },
    {
      "buffer": 0,
      "byteLength": 27584,
      "byteOffset": 96304,
      "byteStride": 16,
      "name": "floatBufferViews",
      "target": 34962
    },
    {
      "buffer": 0,
      "byteLength": 192,
      "byteOffset": 123888,
      "name": "floatBufferViews"
    },
    {
      "buffer": 0,
      "byteLength": 404,
      "byteOffset": 124080,
      "name": "floatBufferViews"
    },
    {
      "buffer": 0,
      "byteLength": 12,
      "byteOffset": 124484,
      "byteStride": 12,
      "name": "floatBufferViews"
    },
    {
      "buffer": 0,
      "byteLength": 1600,
      "byteOffset": 124496,
      "byteStride": 16,
      "name": "floatBufferViews"
    }
  ],
  "buffers": [
    {
      "byteLength": 126096,
      "uri": "scene.bin"
    }
  ],
  "materials": [
    {
      "doubleSided": true,
      "name": "Material.002",
      "pbrMetallicRoughness": {
        "baseColorFactor": [
          0.4233613610267639,
          0.3475216031074524,
          0.9258246421813965,
          1.0
        ],
        "metallicFactor": 0.0,
        "roughnessFactor": 0.6
      }
    },
    {
      "doubleSided": true,
      "name": "Material.003",
      "pbrMetallicRoughness": {
        "baseColorFactor": [
          0.0,
          0.0,
          0.0,
          1.0
        ],
        "metallicFactor": 0.0,
        "roughnessFactor": 0.6
      }
    }
  ],
  "meshes": [
    {
      "name": "Plane",
      "primitives": [
        {
          "attributes": {
            "JOINTS_0": 7,
            "NORMAL": 1,
            "POSITION": 0,
            "WEIGHTS_0": 8
          },
          "indices": 2,
          "material": 0,
          "mode": 4
        }
      ]
    },
    {
      "name": "Plane",
      "primitives": [
        {
          "attributes": {
            "NORMAL": 4,
            "POSITION": 3
          },
          "indices": 5,
          "material": 1,
          "mode": 4
        }
      ]
    }
  ],
  "nodes": [
    {
      "children": [
        1
      ],
      "matrix": [
        1.0,
        0.0,
        0.0,
        0.0,
        0.0,
        2.220446049250313e-16,
        -1.0,
        0.0,
        0.0,
        1.0,
        2.220446049250313e-16,
        0.0,
        0.0,
        0.0,
        0.0,
        1.0
      ],
      "name": "Sketchfab_model"
    },
    {
      "children": [
        2
      ],
      "name": "Root"
    },
    {
      "children": [
        3,
        7,
        6
      ],
      "matrix": [
        1.0,
        0.0,
        0.0,
        0.0,
        0.0,
        1.0,
        0.0,
        0.0,
        0.0,
        0.0,
        1.0,
        0.0,
        -1.8495,
        -0.05819000000000001,
        0.17492000000000002,
        1.0
      ],
      "name": "Armature"
    },
    {
      "children": [
        4,
        5
      ],
      "name": "Armature_rootJoint"
    },
    {
      "name": "Right_Wing_Armature",
      "rotation": [
        0.9268012046813965,
        -0.07607334107160568,
        0.023804595693945885,
        0.36699578166007996
      ],
      "scale": [
        0.9999978542327881,
        0.9999943375587463,
        1.0000073909759521
      ],
      "translation": [
        2.3939599990844727,
        0.04335999861359596,
        0.10824000090360641
      ]
    },
    {
      "name": "Left_Wing_Armature",
      "rotation": [
        0.3842087984085083,
        -0.023060554638504982,
        0.07807333767414093,
        0.9196502566337585
      ],
      "scale": [
        1.0000042915344238,
        0.9999939203262329,
        1.0000059604644775
      ],
      "translation": [
        2.3939599990844727,
        0.04335999861359596,
        0.10824000090360641
      ]
    },
    {
      "children": [
        8
      ],
      "matrix": [
        1.0,
        0.0,
        0.0,
        0.0,
        0.0,
        1.0,
        0.0,
        0.0,
        0.0,
        0.0,
        1.0,
        0.0,
        1.8495,
        0.05819000000000001,
        -0.17492000000000002,
        1.0
      ],
      "name": "Plane"
    },
    {
      "mesh": 0,
      "name": "Plane_0",
      "skin": 0
    },
    {
      "mesh": 1,
      "name": "Plane"
    }
  ],
  "scene": 0,
  "scenes": [
    {
      "name": "Sketchfab_Scene",
      "nodes": [
        0
      ]
    }
  ],
  "skins": [
    {
      "inverseBindMatrices": 6,
      "joints": [
        3,
        4,
        5
      ],
      "skeleton": 3
    }
  ]
}
